REM DIRINDEX 1\4,1\2\5,1\2\6,1\3\7,1\3\8
REM DIRNAME cjc124,folder01,folder02,folder03,folder04,folder05,folder06,folder07
TITLE ""
FILE "095_Day48_Check2_Phrases.mp3" MP3
  TRACK 01 AUDIO
    TITLE "0:"
    INDEX 01 00:00:00
  TRACK 02 AUDIO
    TITLE "4:cjc124_3105"
    INDEX 01 00:00:33
  TRACK 03 AUDIO
    TITLE "0:"
    INDEX 01 00:01:56
  TRACK 04 AUDIO
    TITLE "5:cjc124_3106"
    INDEX 01 00:02:16
  TRACK 05 AUDIO
    TITLE "0:"
    INDEX 01 00:04:38
  TRACK 06 AUDIO
    TITLE "6:cjc124_3107"
    INDEX 01 00:04:58
  TRACK 07 AUDIO
    TITLE "0:"
    INDEX 01 00:06:43
  TRACK 08 AUDIO
    TITLE "5:cjc124_3108"
    INDEX 01 00:07:07
  TRACK 09 AUDIO
    TITLE "0:"
    INDEX 01 00:09:32
  TRACK 10 AUDIO
    TITLE "6:cjc124_3109"
    INDEX 01 00:09:49
  TRACK 11 AUDIO
    TITLE "0:"
    INDEX 01 00:11:35
  TRACK 12 AUDIO
    TITLE "5:cjc124_3110"
    INDEX 01 00:11:74
  TRACK 13 AUDIO
    TITLE "0:"
    INDEX 01 00:13:53
  TRACK 14 AUDIO
    TITLE "6:cjc124_3111"
    INDEX 01 00:14:15
  TRACK 15 AUDIO
    TITLE "0:"
    INDEX 01 00:15:62
  TRACK 16 AUDIO
    TITLE "5:cjc124_3112"
    INDEX 01 00:16:28
  TRACK 17 AUDIO
    TITLE "0:"
    INDEX 01 00:19:15
  TRACK 18 AUDIO
    TITLE "6:cjc124_3113"
    INDEX 01 00:19:28
  TRACK 19 AUDIO
    TITLE "0:"
    INDEX 01 00:21:33
  TRACK 20 AUDIO
    TITLE "5:cjc124_3114"
    INDEX 01 00:21:74
  TRACK 21 AUDIO
    TITLE "0:"
    INDEX 01 00:24:16
  TRACK 22 AUDIO
    TITLE "6:cjc124_3115"
    INDEX 01 00:24:33
  TRACK 23 AUDIO
    TITLE "0:"
    INDEX 01 00:26:26
  TRACK 24 AUDIO
    TITLE "5:cjc124_3116"
    INDEX 01 00:26:67
  TRACK 25 AUDIO
    TITLE "0:"
    INDEX 01 00:28:47
  TRACK 26 AUDIO
    TITLE "6:cjc124_3117"
    INDEX 01 00:28:66
  TRACK 27 AUDIO
    TITLE "0:"
    INDEX 01 00:30:14
  TRACK 28 AUDIO
    TITLE "5:cjc124_3118"
    INDEX 01 00:30:54
  TRACK 29 AUDIO
    TITLE "0:"
    INDEX 01 00:32:48
  TRACK 30 AUDIO
    TITLE "6:cjc124_3119"
    INDEX 01 00:32:62
  TRACK 31 AUDIO
    TITLE "0:"
    INDEX 01 00:34:65
  TRACK 32 AUDIO
    TITLE "5:cjc124_3120"
    INDEX 01 00:35:33
  TRACK 33 AUDIO
    TITLE "0:"
    INDEX 01 00:37:16
  TRACK 34 AUDIO
    TITLE "6:cjc124_3121"
    INDEX 01 00:37:34
  TRACK 35 AUDIO
    TITLE "0:"
    INDEX 01 00:39:05
  TRACK 36 AUDIO
    TITLE "5:cjc124_3122"
    INDEX 01 00:39:43
  TRACK 37 AUDIO
    TITLE "0:"
    INDEX 01 00:41:53
  TRACK 38 AUDIO
    TITLE "6:cjc124_3123"
    INDEX 01 00:41:71
  TRACK 39 AUDIO
    TITLE "0:"
    INDEX 01 00:43:50
  TRACK 40 AUDIO
    TITLE "5:cjc124_3124"
    INDEX 01 00:44:12
  TRACK 41 AUDIO
    TITLE "0:"
    INDEX 01 00:45:67
  TRACK 42 AUDIO
    TITLE "6:cjc124_3125"
    INDEX 01 00:46:09
  TRACK 43 AUDIO
    TITLE "0:"
    INDEX 01 00:47:30
  TRACK 44 AUDIO
    TITLE "5:cjc124_3126"
    INDEX 01 00:47:70
  TRACK 45 AUDIO
    TITLE "0:"
    INDEX 01 00:49:63
  TRACK 46 AUDIO
    TITLE "6:cjc124_3127"
    INDEX 01 00:50:21
  TRACK 47 AUDIO
    TITLE "0:"
    INDEX 01 00:51:58
  TRACK 48 AUDIO
    TITLE "5:cjc124_3128"
    INDEX 01 00:52:22
  TRACK 49 AUDIO
    TITLE "0:"
    INDEX 01 00:54:07
  TRACK 50 AUDIO
    TITLE "6:cjc124_3129"
    INDEX 01 00:54:25
  TRACK 51 AUDIO
    TITLE "0:"
    INDEX 01 00:55:71
  TRACK 52 AUDIO
    TITLE "5:cjc124_3130"
    INDEX 01 00:56:37
  TRACK 53 AUDIO
    TITLE "0:"
    INDEX 01 00:57:68
  TRACK 54 AUDIO
    TITLE "6:cjc124_3131"
    INDEX 01 00:58:34
  TRACK 55 AUDIO
    TITLE "0:"
    INDEX 01 00:59:71
  TRACK 56 AUDIO
    TITLE "5:cjc124_3132"
    INDEX 01 01:00:41
  TRACK 57 AUDIO
    TITLE "0:"
    INDEX 01 01:02:08
  TRACK 58 AUDIO
    TITLE "6:cjc124_3133"
    INDEX 01 01:02:24
  TRACK 59 AUDIO
    TITLE "0:"
    INDEX 01 01:03:55
  TRACK 60 AUDIO
    TITLE "5:cjc124_3134"
    INDEX 01 01:04:17
  TRACK 61 AUDIO
    TITLE "0:"
    INDEX 01 01:06:71
  TRACK 62 AUDIO
    TITLE "6:cjc124_3135"
    INDEX 01 01:07:10
  TRACK 63 AUDIO
    TITLE "0:"
    INDEX 01 01:09:01
  TRACK 64 AUDIO
    TITLE "5:cjc124_3136"
    INDEX 01 01:09:40
  TRACK 65 AUDIO
    TITLE "0:"
    INDEX 01 01:12:05
  TRACK 66 AUDIO
    TITLE "6:cjc124_3137"
    INDEX 01 01:12:19
  TRACK 67 AUDIO
    TITLE "0:"
    INDEX 01 01:14:37
